<?xml version="1.0" encoding="UTF-8"?>
<svg xmlns:xlink="http://www.w3.org/1999/xlink" 
xmlns="http://www.w3.org/2000/svg" 
width="360px" height="180px">


	<style type="text/css">
		<![CDATA[     
		
		.region { fill:none; stroke:black; stroke-width:1}
		
		]]></style>
		
			<script type="text/javascript">
				<![CDATA[

				/* Hint from http://groups.google.com/group/mozilla.dev.tech.svg/browse_thread/thread/488562b99c511059/c7c4375e970c3cae?#c7c4375e970c3cae */
				function go(loc)
				{
					// o is the object that embeds the SVG
					var o = window.frameElement.id;
					var p = window.frameElement.parentNode.parentNode.parentNode;
					p.location=loc;
				}

				// ]]>
				</script>


<!-- <rect id="dot" x="0" y="0" width="4" height="4" style="stroke:none; stroke-width:1; fill:black; opacity:1.0"/> -->


<!-- Object is self geotagged -->
<g id="self0">
	<circle  cx="0" cy="0" r="5" style="stroke:black; stroke-width:1; fill:white; opacity:1.0"/>
	<circle  cx="0" cy="0" r="3" style="stroke:none; stroke-width:1; fill:black; opacity:1.0"/>
</g>

<g id="self1">
	<circle  cx="0" cy="0" r="4" style="stroke:black; stroke-width:1; fill:white; opacity:1.0"/>
	<circle  cx="0" cy="0" r="2" style="stroke:none; stroke-width:1; fill:black; opacity:1.0"/> 
</g>
<circle id="self2" cx="0" cy="0" r="2" style="stroke:black; stroke-width:1; fill:black; opacity:1.0"/>


<!-- We have geotagged it -->
<g id="tagged0">
	<circle  cx="0" cy="0" r="5" style="stroke:black; stroke-width:1; fill:white; opacity:1.0"/>
	<circle  cx="0" cy="0" r="3" style="stroke:none; stroke-width:1; fill:white; opacity:1.0"/>
</g>

<g id="tagged1">
	<circle  cx="0" cy="0" r="4" style="stroke:black; stroke-width:1; fill:white; opacity:0.7"/>
	<circle  cx="0" cy="0" r="2" style="stroke:none; stroke-width:1; fill:white; opacity:0.7"/>
</g>
<circle id="tagged2" cx="0" cy="0" r="2" style="stroke:black; stroke-width:1; fill:white; opacity:1.0"/>

<!-- map background -->
<image x="0" y="0" width="360" height="180" xlink:href="mape.png" />

<g transform="translate(180,90) scale(1,-1)"> 

<!-- original Fishbase records -->
<use xlink:href="#self1" transform="translate(25.61,-14.86)" />
<use xlink:href="#self1" transform="translate(25.61,-14.86)" />
<use xlink:href="#self1" transform="translate(25.61,-14.86)" />
<use xlink:href="#self1" transform="translate(36.21,-5.13)" />
<use xlink:href="#self1" transform="translate(36.21,-5.13)" />
<use xlink:href="#self1" transform="translate(36.21,-5.13)" />
<use xlink:href="#self1" transform="translate(36.21,-5.13)" />
<use xlink:href="#self1" transform="translate(36.21,-5.13)" />
<use xlink:href="#self1" transform="translate(36.21,-5.13)" />
<use xlink:href="#self1" transform="translate(36.21,-5.13)" />
<use xlink:href="#self1" transform="translate(36.21,-5.13)" />
<use xlink:href="#self1" transform="translate(36.41,-4.05)" />
<use xlink:href="#self1" transform="translate(37.55,-0.35)" />
<use xlink:href="#self1" transform="translate(37.55,-0.35)" />
<use xlink:href="#self1" transform="translate(37.55,-0.35)" />
<use xlink:href="#self1" transform="translate(37.55,-0.35)" />
<use xlink:href="#self1" transform="translate(37.55,-0.35)" />
<use xlink:href="#self1" transform="translate(37.55,-0.35)" />
<use xlink:href="#self1" transform="translate(37.55,-0.35)" />
<use xlink:href="#self1" transform="translate(37.55,-0.35)" />
<use xlink:href="#self1" transform="translate(37.55,-0.35)" />
<use xlink:href="#self1" transform="translate(37.55,-0.35)" />
<use xlink:href="#self1" transform="translate(37.55,-0.35)" />
<use xlink:href="#self1" transform="translate(37.55,-0.35)" />
<use xlink:href="#self1" transform="translate(37.48,-0.38)" />
<use xlink:href="#self1" transform="translate(37.48,-0.38)" />
<use xlink:href="#self1" transform="translate(37.48,-0.38)" />
<use xlink:href="#self1" transform="translate(37.48,-0.38)" />
<use xlink:href="#self1" transform="translate(37.48,-0.38)" />
<use xlink:href="#self1" transform="translate(37.48,-0.38)" />
<use xlink:href="#self1" transform="translate(37.55,-0.35)" />
<use xlink:href="#self1" transform="translate(37.55,-0.35)" />
<use xlink:href="#self1" transform="translate(37.55,-0.35)" />
<use xlink:href="#self1" transform="translate(37.48,-0.38)" />
<use xlink:href="#self1" transform="translate(37.46,-0.38)" />
<use xlink:href="#self1" transform="translate(39.56,-0.08)" />
<use xlink:href="#self1" transform="translate(39.56,-0.08)" />
<use xlink:href="#self1" transform="translate(39.56,-0.08)" />
<use xlink:href="#self1" transform="translate(39.56,-0.08)" />
<use xlink:href="#self1" transform="translate(39.56,-0.08)" />
<use xlink:href="#self1" transform="translate(39.56,-0.08)" />
<use xlink:href="#self1" transform="translate(39.56,-0.08)" />
<use xlink:href="#self1" transform="translate(39.56,-0.08)" />
<use xlink:href="#self1" transform="translate(39.81,0.55)" />
<use xlink:href="#self1" transform="translate(39.81,0.55)" />
<use xlink:href="#self1" transform="translate(39.81,0.55)" />
<use xlink:href="#self1" transform="translate(39.81,0.55)" />
<use xlink:href="#self1" transform="translate(39.81,0.55)" />
<use xlink:href="#self1" transform="translate(39.81,0.55)" />
<use xlink:href="#self1" transform="translate(39.81,0.55)" />
<use xlink:href="#self1" transform="translate(39.81,0.55)" />
<use xlink:href="#self1" transform="translate(39.53,0.2)" />
<use xlink:href="#self1" transform="translate(39.56,0.1)" />
<use xlink:href="#self1" transform="translate(39.56,0.1)" />
<use xlink:href="#self1" transform="translate(39.56,0.1)" />
<use xlink:href="#self1" transform="translate(39.56,0.1)" />
<use xlink:href="#self1" transform="translate(39.56,0.1)" />
<use xlink:href="#self1" transform="translate(39.56,0.1)" />
<use xlink:href="#self1" transform="translate(39.56,0.1)" />
<use xlink:href="#self1" transform="translate(39.56,0.08)" />
<use xlink:href="#self1" transform="translate(39.53,0.2)" />
<use xlink:href="#self1" transform="translate(39.53,0.2)" />
<use xlink:href="#self1" transform="translate(39.53,0.2)" />
<use xlink:href="#self1" transform="translate(39.53,0.2)" />
<use xlink:href="#self1" transform="translate(39.56,0.08)" />
<use xlink:href="#self1" transform="translate(39.56,0.08)" />
<use xlink:href="#self1" transform="translate(39.56,0.08)" />
<use xlink:href="#self1" transform="translate(39.56,0.08)" />
<use xlink:href="#self1" transform="translate(39.53,0.2)" />
<use xlink:href="#self1" transform="translate(39.53,0.2)" />
<use xlink:href="#self1" transform="translate(39.56,0.1)" />
<use xlink:href="#self1" transform="translate(39.56,0.1)" />
<use xlink:href="#self1" transform="translate(39.58,0.05)" />
<use xlink:href="#self1" transform="translate(39.58,0.05)" />
<use xlink:href="#self1" transform="translate(39.58,0.05)" />
<use xlink:href="#self1" transform="translate(39.58,0.05)" />
<use xlink:href="#self1" transform="translate(39.58,0.05)" />
<use xlink:href="#self1" transform="translate(39.58,0.05)" />
<use xlink:href="#self1" transform="translate(39.58,0.05)" />
<use xlink:href="#self1" transform="translate(39.58,0.05)" />
<use xlink:href="#self1" transform="translate(39.53,0.2)" />
<use xlink:href="#self1" transform="translate(39.56,0.08)" />
<use xlink:href="#self1" transform="translate(39.56,0.08)" />
<use xlink:href="#self1" transform="translate(39.56,0.08)" />
<use xlink:href="#self1" transform="translate(39.56,0.08)" />
<use xlink:href="#self1" transform="translate(39.56,0.08)" />
<use xlink:href="#self1" transform="translate(39.56,0.08)" />
<use xlink:href="#self1" transform="translate(39.53,0.2)" />
<use xlink:href="#self1" transform="translate(39.53,0.2)" />
<use xlink:href="#self1" transform="translate(39.58,0.05)" />
<use xlink:href="#self1" transform="translate(39.58,0.05)" />
<use xlink:href="#self1" transform="translate(39.53,0.2)" />
<use xlink:href="#self1" transform="translate(39.56,0.08)" />
<use xlink:href="#self1" transform="translate(39.58,0.05)" />
<use xlink:href="#self1" transform="translate(39.56,0.1)" />
<use xlink:href="#self1" transform="translate(42.03,3.16)" />
<use xlink:href="#self1" transform="translate(42.03,3.16)" />
<use xlink:href="#self1" transform="translate(42.16,3.18)" />
<use xlink:href="#self1" transform="translate(42.16,3.18)" />

<!-- swapped -->
<use xlink:href="#tagged1" transform="translate(-14.86,25.61)" />
<use xlink:href="#tagged1" transform="translate(-14.86,25.61)" />
<use xlink:href="#tagged1" transform="translate(-14.86,25.61)" />
<use xlink:href="#tagged1" transform="translate(-5.13,36.21)" />
<use xlink:href="#tagged1" transform="translate(-5.13,36.21)" />
<use xlink:href="#tagged1" transform="translate(-5.13,36.21)" />
<use xlink:href="#tagged1" transform="translate(-5.13,36.21)" />
<use xlink:href="#tagged1" transform="translate(-5.13,36.21)" />
<use xlink:href="#tagged1" transform="translate(-5.13,36.21)" />
<use xlink:href="#tagged1" transform="translate(-5.13,36.21)" />
<use xlink:href="#tagged1" transform="translate(-5.13,36.21)" />
<use xlink:href="#tagged1" transform="translate(-4.05,36.41)" />
<use xlink:href="#tagged1" transform="translate(-0.35,37.55)" />
<use xlink:href="#tagged1" transform="translate(-0.35,37.55)" />
<use xlink:href="#tagged1" transform="translate(-0.35,37.55)" />
<use xlink:href="#tagged1" transform="translate(-0.35,37.55)" />
<use xlink:href="#tagged1" transform="translate(-0.35,37.55)" />
<use xlink:href="#tagged1" transform="translate(-0.35,37.55)" />
<use xlink:href="#tagged1" transform="translate(-0.35,37.55)" />
<use xlink:href="#tagged1" transform="translate(-0.35,37.55)" />
<use xlink:href="#tagged1" transform="translate(-0.35,37.55)" />
<use xlink:href="#tagged1" transform="translate(-0.35,37.55)" />
<use xlink:href="#tagged1" transform="translate(-0.35,37.55)" />
<use xlink:href="#tagged1" transform="translate(-0.35,37.55)" />
<use xlink:href="#tagged1" transform="translate(-0.38,37.48)" />
<use xlink:href="#tagged1" transform="translate(-0.38,37.48)" />
<use xlink:href="#tagged1" transform="translate(-0.38,37.48)" />
<use xlink:href="#tagged1" transform="translate(-0.38,37.48)" />
<use xlink:href="#tagged1" transform="translate(-0.38,37.48)" />
<use xlink:href="#tagged1" transform="translate(-0.38,37.48)" />
<use xlink:href="#tagged1" transform="translate(-0.35,37.55)" />
<use xlink:href="#tagged1" transform="translate(-0.35,37.55)" />
<use xlink:href="#tagged1" transform="translate(-0.35,37.55)" />
<use xlink:href="#tagged1" transform="translate(-0.38,37.48)" />
<use xlink:href="#tagged1" transform="translate(-0.38,37.46)" />
<use xlink:href="#tagged1" transform="translate(-0.08,39.56)" />
<use xlink:href="#tagged1" transform="translate(-0.08,39.56)" />
<use xlink:href="#tagged1" transform="translate(-0.08,39.56)" />
<use xlink:href="#tagged1" transform="translate(-0.08,39.56)" />
<use xlink:href="#tagged1" transform="translate(-0.08,39.56)" />
<use xlink:href="#tagged1" transform="translate(-0.08,39.56)" />
<use xlink:href="#tagged1" transform="translate(-0.08,39.56)" />
<use xlink:href="#tagged1" transform="translate(-0.08,39.56)" />
<use xlink:href="#tagged1" transform="translate(0.55,39.81)" />
<use xlink:href="#tagged1" transform="translate(0.55,39.81)" />
<use xlink:href="#tagged1" transform="translate(0.55,39.81)" />
<use xlink:href="#tagged1" transform="translate(0.55,39.81)" />
<use xlink:href="#tagged1" transform="translate(0.55,39.81)" />
<use xlink:href="#tagged1" transform="translate(0.55,39.81)" />
<use xlink:href="#tagged1" transform="translate(0.55,39.81)" />
<use xlink:href="#tagged1" transform="translate(0.55,39.81)" />
<use xlink:href="#tagged1" transform="translate(0.2,39.53)" />
<use xlink:href="#tagged1" transform="translate(0.1,39.56)" />
<use xlink:href="#tagged1" transform="translate(0.1,39.56)" />
<use xlink:href="#tagged1" transform="translate(0.1,39.56)" />
<use xlink:href="#tagged1" transform="translate(0.1,39.56)" />
<use xlink:href="#tagged1" transform="translate(0.1,39.56)" />
<use xlink:href="#tagged1" transform="translate(0.1,39.56)" />
<use xlink:href="#tagged1" transform="translate(0.1,39.56)" />
<use xlink:href="#tagged1" transform="translate(0.08,39.56)" />
<use xlink:href="#tagged1" transform="translate(0.2,39.53)" />
<use xlink:href="#tagged1" transform="translate(0.2,39.53)" />
<use xlink:href="#tagged1" transform="translate(0.2,39.53)" />
<use xlink:href="#tagged1" transform="translate(0.2,39.53)" />
<use xlink:href="#tagged1" transform="translate(0.08,39.56)" />
<use xlink:href="#tagged1" transform="translate(0.08,39.56)" />
<use xlink:href="#tagged1" transform="translate(0.08,39.56)" />
<use xlink:href="#tagged1" transform="translate(0.08,39.56)" />
<use xlink:href="#tagged1" transform="translate(0.2,39.53)" />
<use xlink:href="#tagged1" transform="translate(0.2,39.53)" />
<use xlink:href="#tagged1" transform="translate(0.1,39.56)" />
<use xlink:href="#tagged1" transform="translate(0.1,39.56)" />
<use xlink:href="#tagged1" transform="translate(0.05,39.58)" />
<use xlink:href="#tagged1" transform="translate(0.05,39.58)" />
<use xlink:href="#tagged1" transform="translate(0.05,39.58)" />
<use xlink:href="#tagged1" transform="translate(0.05,39.58)" />
<use xlink:href="#tagged1" transform="translate(0.05,39.58)" />
<use xlink:href="#tagged1" transform="translate(0.05,39.58)" />
<use xlink:href="#tagged1" transform="translate(0.05,39.58)" />
<use xlink:href="#tagged1" transform="translate(0.05,39.58)" />
<use xlink:href="#tagged1" transform="translate(0.2,39.53)" />
<use xlink:href="#tagged1" transform="translate(0.08,39.56)" />
<use xlink:href="#tagged1" transform="translate(0.08,39.56)" />
<use xlink:href="#tagged1" transform="translate(0.08,39.56)" />
<use xlink:href="#tagged1" transform="translate(0.08,39.56)" />
<use xlink:href="#tagged1" transform="translate(0.08,39.56)" />
<use xlink:href="#tagged1" transform="translate(0.08,39.56)" />
<use xlink:href="#tagged1" transform="translate(0.2,39.53)" />
<use xlink:href="#tagged1" transform="translate(0.2,39.53)" />
<use xlink:href="#tagged1" transform="translate(0.05,39.58)" />
<use xlink:href="#tagged1" transform="translate(0.05,39.58)" />
<use xlink:href="#tagged1" transform="translate(0.2,39.53)" />
<use xlink:href="#tagged1" transform="translate(0.08,39.56)" />
<use xlink:href="#tagged1" transform="translate(0.05,39.58)" />
<use xlink:href="#tagged1" transform="translate(0.1,39.56)" />
<use xlink:href="#tagged1" transform="translate(3.16,42.03)" />
<use xlink:href="#tagged1" transform="translate(3.16,42.03)" />
<use xlink:href="#tagged1" transform="translate(3.18,42.16)" />
<use xlink:href="#tagged1" transform="translate(3.18,42.16)" />


</g>
</svg>